<svg width="92" height="92" viewBox="0 0 92 92" fill="none" xmlns="http://www.w3.org/2000/svg">
<path d="M89.1991 52.0184C79.534 37.2192 80.5613 22.0494 75.9025 14.9168C71.2438 7.78429 57.3594 -4.51305 24.5538 16.9153C-8.25189 38.3436 0.0919987 61.6375 5.21844 69.4805C29.21 106.209 106.319 78.2282 89.1991 52.0184V52.0184Z" fill="#F5F3F7"/>
<path d="M24.9167 36.4164V69.6387C24.9167 72.4498 27.2167 74.7498 30.0278 74.7498H61.9722C64.7833 74.7498 67.0833 72.4498 67.0833 69.6387V36.4164H24.9167Z" fill="#F5F3F7"/>
<path d="M72.1945 36.4164H19.8056V30.0276C19.8056 27.2037 22.0928 24.9164 24.9167 24.9164H67.0834C69.9072 24.9164 72.1945 27.2037 72.1945 30.0276V36.4164Z" fill="#D51A52"/>
<path d="M30.6667 24.9164H24.9167C22.0928 24.9164 19.8056 27.2037 19.8056 30.0276V36.4164H25.5556V30.0276C25.5556 27.2037 27.8428 24.9164 30.6667 24.9164Z" fill="#C61349"/>
<path d="M10.3153 12.2127L12.1223 10.4057L15.7364 14.0198L13.9294 15.8268L10.3153 12.2127Z" fill="#ABA7AF"/>
<path d="M9.86351 24.4053L13.4776 20.7912L15.2847 22.5982L11.6706 26.2123L9.86351 24.4053Z" fill="#ABA7AF"/>
<path d="M20.2526 14.0181L23.8667 10.404L25.6737 12.211L22.0596 15.8251L20.2526 14.0181Z" fill="#ABA7AF"/>
<path d="M70.9167 15.7038C68.8032 15.7038 67.0833 13.9839 67.0833 11.8705C67.0833 9.75704 68.8032 8.03715 70.9167 8.03715C73.0301 8.03715 74.75 9.75704 74.75 11.8705C74.75 13.9839 73.0301 15.7038 70.9167 15.7038ZM70.9167 10.5927C70.2113 10.5927 69.6389 11.1651 69.6389 11.8705C69.6389 12.5758 70.2113 13.1483 70.9167 13.1483C71.622 13.1483 72.1945 12.5758 72.1945 11.8705C72.1945 11.1651 71.622 10.5927 70.9167 10.5927Z" fill="#ABA7AF"/>
<path d="M61.9722 76.6664H30.0278C26.151 76.6664 23 73.5154 23 69.6387V36.4164H26.8333V69.6387C26.8333 71.3994 28.267 72.8331 30.0278 72.8331H61.9722C63.733 72.8331 65.1667 71.3994 65.1667 69.6387V36.4164H69V69.6387C69 73.5154 65.849 76.6664 61.9722 76.6664Z" fill="#1A141F"/>
<path d="M72.1944 38.3333H60.0556V34.5H70.2778V30.0278C70.2778 28.267 68.8441 26.8333 67.0833 26.8333H24.9167C23.1559 26.8333 21.7222 28.267 21.7222 30.0278V34.5H60.0556V38.3333H19.8056C18.7476 38.3333 17.8889 37.4747 17.8889 36.4167V30.0278C17.8889 26.151 21.0399 23 24.9167 23H67.0833C70.9601 23 74.1111 26.151 74.1111 30.0278V36.4167C74.1111 37.4747 73.2524 38.3333 72.1944 38.3333Z" fill="#1A141F"/>
<path d="M58.7778 24.9165H54.9445V19.8054C54.9445 19.4528 54.6582 19.1665 54.3056 19.1665H37.6945C37.3418 19.1665 37.0556 19.4528 37.0556 19.8054V24.9165H33.2222V19.8054C33.2222 17.3393 35.2283 15.3332 37.6945 15.3332H54.3056C56.7717 15.3332 58.7778 17.3393 58.7778 19.8054V24.9165Z" fill="#1A141F"/>
<path d="M44.0833 47.9164H47.9167V64.5275H44.0833V47.9164Z" fill="#1A141F"/>
<path d="M33.2222 47.9164H37.0556V64.5275H33.2222V47.9164Z" fill="#1A141F"/>
<path d="M54.9444 47.9164H58.7777V64.5275H54.9444V47.9164Z" fill="#1A141F"/>
<path d="M5.11111 72.8332H86.8889V76.6665H5.11111V72.8332Z" fill="#1A141F"/>
</svg>
