<svg width="381" height="66" viewBox="0 0 381 66" fill="none" xmlns="http://www.w3.org/2000/svg">
<path d="M203.4 49.1999H321.9V47.3999H203.4" fill="#2B99BC"/>
<path d="M344.5 49.1999H378.2V47.3999H344.5" fill="#2B99BC"/>
<path d="M28.1 63.1001H50.8L70.4 12.1001L45.1 20.3001L28.1 63.1001Z" fill="white"/>
<path d="M0 63.0999H22.7L38.3 22.3999L13.3 29.5999L0 63.0999Z" fill="white"/>
<path d="M114.9 54.7001L112.1 63.1001H64.6C64.6 63.1001 58 62.1001 60.5 54.7001L80.2 5.20012C80.2 5.20012 82.6 0.600123 90.4 1.10012H121.4C121.4 1.10012 125.1 0.400123 132.4 5.00012L185.3 38.6001C185.3 38.6001 189.4 41.3001 184.1 51.3001C184.1 51.3001 178.5 63.6001 171.7 63.1001H125.9C125.9 63.1001 120 62.6001 122.5 52.6001L126.6 38.9001H148L143.4 52.6001C143.4 52.6001 142.7 54.8001 145.8 55.0001H157.7C157.7 55.0001 161.8 56.0001 164.3 50.6001L167 44.7001C167 44.7001 170.2 40.1001 163.6 37.5001L124.6 12.0001C124.6 12.0001 120.7 9.60012 117.3 9.60012H103.9C103.9 9.60012 99.3 8.60012 97.3 14.2001L83.4 50.6001C83.4 50.6001 81.4 54.3001 85.1 54.5001L114.9 54.7001Z" fill="white"/>
<path d="M150.2 9.4H176.3C176.3 9.4 178 9.9 176.3 14.3L174.8 18.9H196.3L199.5 9.4C199.5 9.4 202.4 1.2 196.3 1H148L142.1 4.2L150.2 9.4Z" fill="white"/>
<path d="M71.7 7.3L14.9 25.7L23.7 0H74.4L71.7 7.3Z" fill="#2B99BC"/>
<path d="M204 62.8L205.5 55H208.3L208.5 54H201.8L201.6 55H204.4L202.8 62.8H204Z" fill="#818486"/>
<path d="M218.6 62.8002L219.2 59.9002C219.4 58.9002 219.7 58.3002 220.1 57.9002C220.5 57.5002 221 57.3002 221.5 57.3002C221.8 57.3002 222 57.4002 222.1 57.5002C222.2 57.6002 222.3 57.8002 222.3 58.0002C222.3 58.2002 222.3 58.5002 222.2 58.9002L221.4 62.9002H222.4L223.2 59.1002C223.3 58.6002 223.4 58.2002 223.4 58.0002C223.4 57.5002 223.3 57.2002 223 56.9002C222.7 56.6002 222.3 56.5002 221.8 56.5002C221.4 56.5002 221.1 56.6002 220.7 56.8002C220.3 57.0002 220 57.3002 219.5 57.7002L219.7 56.6002H218.7L217.4 62.9002H218.6V62.8002ZM215 61.0002C214.8 61.3002 214.6 61.6002 214.2 61.8002C213.9 62.0002 213.5 62.1002 213.2 62.1002C212.8 62.1002 212.5 62.0002 212.3 61.8002C212.1 61.6002 212 61.4002 212 61.1002C212 60.9002 212.1 60.7002 212.2 60.5002C212.3 60.3002 212.5 60.2002 212.8 60.1002C213.1 60.0002 213.5 59.9002 214.1 59.9002C214.5 59.9002 214.8 59.8002 214.9 59.8002C215.1 59.8002 215.2 59.7002 215.4 59.7002C215.4 60.2002 215.2 60.7002 215 61.0002ZM215.2 62.8002H216.3C216.2 62.4002 216.2 62.1002 216.2 61.9002C216.2 61.6002 216.3 61.2002 216.4 60.7002L216.7 59.1002C216.8 58.7002 216.8 58.3002 216.8 57.9002C216.8 57.5002 216.6 57.1002 216.3 56.8002C215.9 56.4002 215.3 56.2002 214.5 56.2002C213.8 56.2002 213.2 56.4002 212.7 56.7002C212.2 57.0002 211.9 57.5002 211.7 58.1002L212.8 58.2002C212.9 57.8002 213.1 57.5002 213.4 57.3002C213.7 57.1002 214 57.0002 214.5 57.0002C215 57.0002 215.3 57.1002 215.6 57.3002C215.8 57.4002 215.9 57.6002 215.9 57.9002C215.9 58.1002 215.9 58.3002 215.8 58.6002C215.5 58.7002 215 58.8002 214.4 58.8002C213.7 58.8002 213.3 58.9002 213.1 58.9002C212.7 59.0002 212.4 59.1002 212.1 59.3002C211.8 59.5002 211.6 59.7002 211.5 60.0002C211.3 60.3002 211.3 60.6002 211.3 60.9002C211.3 61.4002 211.5 61.9002 211.8 62.2002C212.1 62.5002 212.6 62.7002 213.2 62.7002C213.6 62.7002 213.9 62.6002 214.3 62.5002C214.6 62.4002 215 62.1002 215.3 61.8002C215.1 62.3002 215.1 62.6002 215.2 62.8002ZM207.9 62.8002L208.4 60.3002C208.6 59.2002 208.9 58.5002 209.3 58.0002C209.7 57.6002 210.1 57.4002 210.4 57.4002C210.6 57.4002 210.8 57.5002 211 57.6002L211.4 56.6002C211.1 56.4002 210.8 56.4002 210.6 56.4002C210.3 56.4002 210 56.5002 209.7 56.8002C209.4 57.0002 209.1 57.4002 208.8 57.9002L209.1 56.6002H208.2L206.9 62.9002H207.9V62.8002Z" fill="#818486"/>
<path d="M231.4 62.7999L232.5 57.2999H233.7L233.9 56.4999H232.7L232.8 55.7999C232.9 55.3999 233 55.1999 233.1 55.0999C233.2 54.9999 233.4 54.8999 233.6 54.8999C233.8 54.8999 234.1 54.8999 234.5 54.9999L234.7 54.0999C234.2 53.9999 233.8 53.8999 233.5 53.8999C233.1 53.8999 232.8 53.9999 232.6 54.0999C232.4 54.1999 232.2 54.3999 232.1 54.5999C232 54.7999 231.9 55.0999 231.8 55.5999L231.6 56.4999H230.7L230.5 57.2999H231.4L230.3 62.7999H231.4ZM225 62.3999C225.5 62.7999 226.1 62.8999 226.8 62.8999C227.3 62.8999 227.8 62.7999 228.2 62.5999C228.6 62.3999 228.9 62.1999 229.1 61.8999C229.3 61.5999 229.4 61.2999 229.4 60.9999C229.4 60.4999 229.2 60.0999 228.9 59.7999C228.7 59.5999 228.2 59.2999 227.4 58.9999C226.9 58.7999 226.6 58.5999 226.5 58.4999C226.3 58.2999 226.2 58.1999 226.2 57.9999C226.2 57.7999 226.3 57.5999 226.5 57.3999C226.7 57.1999 227 57.0999 227.3 57.0999C227.8 57.0999 228.1 57.1999 228.3 57.3999C228.5 57.5999 228.7 57.8999 228.7 58.2999L229.7 58.1999C229.7 57.5999 229.5 57.0999 229.1 56.6999C228.7 56.2999 228.1 56.1999 227.3 56.1999C226.6 56.1999 226.1 56.3999 225.7 56.6999C225.3 57.0999 225.1 57.4999 225.1 57.9999C225.1 58.2999 225.2 58.4999 225.3 58.7999C225.4 58.9999 225.6 59.1999 225.9 59.3999C226.1 59.4999 226.4 59.6999 227 59.8999C227.6 60.0999 227.9 60.2999 228 60.4999C228.1 60.6999 228.2 60.7999 228.2 60.9999C228.2 61.2999 228.1 61.4999 227.9 61.6999C227.7 61.8999 227.3 61.9999 226.9 61.9999C226.6 61.9999 226.3 61.8999 226 61.7999C225.8 61.6999 225.6 61.4999 225.5 61.2999C225.4 61.0999 225.4 60.7999 225.4 60.4999L224.4 60.5999C224.3 61.3999 224.5 61.9999 225 62.3999Z" fill="#818486"/>
<path d="M258.2 61.0001C258 61.3001 257.8 61.6001 257.4 61.8001C257.1 62.0001 256.7 62.1001 256.4 62.1001C256 62.1001 255.7 62.0001 255.5 61.8001C255.3 61.6001 255.2 61.4001 255.2 61.1001C255.2 60.9001 255.3 60.7001 255.4 60.5001C255.5 60.3001 255.7 60.2001 256 60.1001C256.3 60.0001 256.7 59.9001 257.3 59.9001C257.7 59.9001 258 59.8001 258.1 59.8001C258.3 59.8001 258.4 59.7001 258.6 59.7001C258.6 60.2001 258.4 60.7001 258.2 61.0001ZM258.4 62.8001H259.5C259.4 62.4001 259.4 62.1001 259.4 61.9001C259.4 61.6001 259.5 61.2001 259.6 60.7001L259.9 59.1001C260 58.7001 260 58.3001 260 57.9001C260 57.5001 259.8 57.1001 259.5 56.8001C259.1 56.4001 258.5 56.2001 257.7 56.2001C257 56.2001 256.4 56.4001 255.9 56.7001C255.4 57.0001 255.1 57.5001 254.9 58.1001L256 58.2001C256.1 57.8001 256.3 57.5001 256.6 57.3001C256.9 57.1001 257.2 57.0001 257.7 57.0001C258.2 57.0001 258.5 57.1001 258.8 57.3001C259 57.4001 259.1 57.6001 259.1 57.9001C259.1 58.1001 259.1 58.3001 259 58.6001C258.7 58.7001 258.2 58.8001 257.6 58.8001C256.9 58.8001 256.5 58.9001 256.3 58.9001C255.9 59.0001 255.6 59.1001 255.3 59.3001C255 59.5001 254.8 59.7001 254.7 60.0001C254.5 60.3001 254.5 60.6001 254.5 60.9001C254.5 61.4001 254.7 61.9001 255 62.2001C255.3 62.5001 255.8 62.7001 256.4 62.7001C256.8 62.7001 257.1 62.6001 257.5 62.5001C257.8 62.4001 258.2 62.1001 258.5 61.8001C258.3 62.3001 258.3 62.6001 258.4 62.8001ZM245.2 62.8001L245.8 59.8001C245.9 59.2001 246.1 58.7001 246.3 58.3001C246.5 58.0001 246.8 57.7001 247.1 57.5001C247.4 57.3001 247.7 57.2001 248 57.2001C248.2 57.2001 248.4 57.3001 248.5 57.4001C248.6 57.5001 248.7 57.7001 248.7 57.9001C248.7 58.0001 248.7 58.2001 248.6 58.5001L247.7 62.8001H248.7L249.3 59.7001C249.4 59.0001 249.6 58.6001 249.8 58.2001C250 57.9001 250.2 57.6001 250.6 57.4001C250.9 57.2001 251.2 57.1001 251.6 57.1001C251.8 57.1001 252 57.2001 252.1 57.3001C252.2 57.4001 252.3 57.6001 252.3 57.8001C252.3 57.9001 252.3 58.2001 252.2 58.5001L251.4 62.7001H252.5L253.3 58.6001C253.4 58.2001 253.4 57.8001 253.4 57.6001C253.4 57.1001 253.3 56.8001 253 56.5001C252.7 56.3001 252.4 56.1001 251.8 56.1001C251.4 56.1001 251.1 56.2001 250.7 56.4001C250.4 56.6001 250 56.9001 249.7 57.3001C249.6 56.9001 249.5 56.6001 249.2 56.4001C248.9 56.2001 248.6 56.1001 248.2 56.1001C247.8 56.1001 247.5 56.2001 247.2 56.4001C246.9 56.6001 246.5 56.9001 246.2 57.3001L246.4 56.3001H245.4L244.1 62.6001H245.2V62.8001ZM241.2 62.8001L241.7 60.3001C241.9 59.2001 242.2 58.5001 242.6 58.0001C243 57.6001 243.4 57.4001 243.7 57.4001C243.9 57.4001 244.1 57.5001 244.3 57.6001L244.7 56.6001C244.4 56.4001 244.1 56.4001 243.9 56.4001C243.6 56.4001 243.3 56.5001 243 56.8001C242.7 57.0001 242.4 57.4001 242.1 57.9001L242.4 56.6001H241.5L240.2 62.9001H241.2V62.8001ZM234.9 59.2001C235 58.8001 235.2 58.4001 235.4 58.1001C235.6 57.8001 235.9 57.6001 236.1 57.4001C236.4 57.2001 236.7 57.2001 237 57.2001C237.4 57.2001 237.8 57.4001 238.1 57.7001C238.4 58.0001 238.5 58.5001 238.5 59.0001C238.5 59.4001 238.4 59.7001 238.3 60.1001C238.2 60.4001 238.1 60.6001 238 60.9001C237.9 61.1001 237.7 61.4001 237.5 61.6001C237.3 61.8001 237.1 61.9001 236.9 62.0001C236.7 62.1001 236.5 62.1001 236.2 62.1001C235.8 62.1001 235.4 61.9001 235.1 61.6001C234.8 61.3001 234.7 60.8001 234.7 60.2001C234.8 59.9001 234.8 59.6001 234.9 59.2001ZM234 61.7001C234.2 62.1001 234.5 62.4001 234.9 62.6001C235.3 62.8001 235.7 62.9001 236.2 62.9001C236.8 62.9001 237.3 62.7001 237.9 62.4001C238.4 62.1001 238.8 61.6001 239.1 61.0001C239.4 60.4001 239.5 59.7001 239.5 59.0001C239.5 58.2001 239.3 57.5001 238.8 57.1001C238.3 56.6001 237.7 56.4001 237 56.4001C236.1 56.4001 235.3 56.7001 234.7 57.4001C234 58.2001 233.6 59.2001 233.6 60.5001C233.7 60.9001 233.8 61.3001 234 61.7001Z" fill="#818486"/>
<path d="M262.6 62.0002C262.4 62.0002 262.3 62.0002 262.2 61.9002C262.1 61.8002 262.1 61.7002 262.1 61.6002C262.1 61.5002 262.1 61.2002 262.2 60.8002L262.9 57.3002H263.9L264.1 56.5002H263.1L263.6 54.2002L262.4 54.9002L262.1 56.5002H261.3L261.1 57.3002H261.9L261.2 61.0002C261.1 61.5002 261 61.8002 261 62.0002C261 62.3002 261.1 62.5002 261.3 62.6002C261.5 62.8002 261.9 62.9002 262.3 62.9002C262.5 62.9002 262.8 62.9002 263 62.8002L263.2 61.9002C263 61.9002 262.8 62.0002 262.6 62.0002Z" fill="#818486"/>
<path d="M287.7 62.8001L289.5 54.1001H288.4L286.6 62.8001H287.7ZM284.2 61.0001C284 61.3001 283.8 61.6001 283.4 61.8001C283.1 62.0001 282.7 62.1001 282.4 62.1001C282 62.1001 281.7 62.0001 281.5 61.8001C281.3 61.6001 281.2 61.4001 281.2 61.1001C281.2 60.9001 281.3 60.7001 281.4 60.5001C281.5 60.3001 281.7 60.2001 282 60.1001C282.3 60.0001 282.7 59.9001 283.3 59.9001C283.7 59.9001 284 59.8001 284.1 59.8001C284.3 59.8001 284.4 59.7001 284.6 59.7001C284.5 60.2001 284.4 60.7001 284.2 61.0001ZM284.3 62.8001H285.4C285.3 62.4001 285.3 62.1001 285.3 61.9001C285.3 61.6001 285.4 61.2001 285.5 60.7001L285.8 59.1001C285.9 58.7001 285.9 58.3001 285.9 57.9001C285.9 57.5001 285.7 57.1001 285.4 56.8001C285 56.4001 284.4 56.2001 283.6 56.2001C282.9 56.2001 282.3 56.4001 281.8 56.7001C281.3 57.0001 281 57.5001 280.8 58.1001L281.9 58.2001C282 57.8001 282.2 57.5001 282.5 57.3001C282.8 57.1001 283.1 57.0001 283.6 57.0001C284.1 57.0001 284.4 57.1001 284.7 57.3001C284.9 57.4001 285 57.6001 285 57.9001C285 58.1001 285 58.3001 284.9 58.6001C284.6 58.7001 284.1 58.8001 283.5 58.8001C282.8 58.8001 282.4 58.9001 282.2 58.9001C281.8 59.0001 281.5 59.1001 281.2 59.3001C280.9 59.5001 280.7 59.7001 280.6 60.0001C280.4 60.3001 280.4 60.6001 280.4 60.9001C280.4 61.4001 280.6 61.9001 280.9 62.2001C281.2 62.5001 281.7 62.7001 282.3 62.7001C282.7 62.7001 283 62.6001 283.4 62.5001C283.7 62.4001 284.1 62.1001 284.5 61.8001C284.2 62.3001 284.3 62.6001 284.3 62.8001ZM274.5 62.8001L275.1 59.9001C275.3 58.9001 275.6 58.3001 276 57.9001C276.4 57.5001 276.9 57.3001 277.4 57.3001C277.7 57.3001 277.9 57.4001 278 57.5001C278.1 57.6001 278.2 57.8001 278.2 58.0001C278.2 58.2001 278.2 58.5001 278.1 58.9001L277.3 62.9001H278.3L279.1 59.1001C279.2 58.6001 279.3 58.2001 279.3 58.0001C279.3 57.5001 279.2 57.2001 278.9 56.9001C278.6 56.6001 278.2 56.5001 277.7 56.5001C277.3 56.5001 277 56.6001 276.6 56.8001C276.2 57.0001 275.9 57.3001 275.4 57.7001L275.6 56.6001H274.6L273.3 62.9001H274.5V62.8001ZM268.2 59.2001C268.3 58.8001 268.5 58.4001 268.7 58.1001C268.9 57.8001 269.2 57.6001 269.4 57.4001C269.7 57.2001 270 57.2001 270.3 57.2001C270.7 57.2001 271.1 57.4001 271.4 57.7001C271.7 58.0001 271.8 58.5001 271.8 59.0001C271.8 59.4001 271.7 59.7001 271.6 60.1001C271.5 60.4001 271.4 60.6001 271.3 60.9001C271.2 61.1001 271 61.4001 270.8 61.6001C270.6 61.8001 270.4 61.9001 270.2 62.0001C270 62.1001 269.8 62.1001 269.5 62.1001C269.1 62.1001 268.7 61.9001 268.4 61.6001C268.1 61.3001 268 60.8001 268 60.2001C268 59.9001 268.1 59.6001 268.2 59.2001ZM267.3 61.7001C267.5 62.1001 267.8 62.4001 268.2 62.6001C268.6 62.8001 269 62.9001 269.5 62.9001C270.1 62.9001 270.6 62.7001 271.2 62.4001C271.7 62.1001 272.1 61.6001 272.4 61.0001C272.7 60.4001 272.8 59.7001 272.8 59.0001C272.8 58.2001 272.6 57.5001 272.1 57.1001C271.6 56.6001 271 56.4001 270.3 56.4001C269.4 56.4001 268.6 56.7001 268 57.4001C267.3 58.2001 266.9 59.2001 266.9 60.5001C267 60.9001 267.1 61.3001 267.3 61.7001ZM265.1 62.8001L266.4 56.5001H265.3L264 62.8001H265.1ZM266.6 55.3001L266.8 54.1001H265.8L265.6 55.3001H266.6Z" fill="#818486"/>
<path d="M311.7 62.8001L313 56.5001H311.9L310.6 62.8001H311.7ZM313.2 55.3001L313.4 54.1001H312.4L312.2 55.3001H313.2ZM305.4 59.1001C305.5 58.7001 305.7 58.4001 305.9 58.1001C306.1 57.8001 306.3 57.6001 306.6 57.5001C306.8 57.4001 307.1 57.3001 307.3 57.3001C307.7 57.3001 308.1 57.5001 308.3 57.8001C308.6 58.1001 308.7 58.5001 308.7 59.0001C308.7 59.5001 308.6 60.0001 308.4 60.5001C308.2 61.0001 307.9 61.4001 307.6 61.7001C307.3 61.9001 306.9 62.1001 306.6 62.1001C306.3 62.1001 306.1 62.0001 305.9 61.9001C305.7 61.7001 305.5 61.5001 305.4 61.2001C305.3 61.0001 305.3 60.7001 305.3 60.2001C305.3 59.8001 305.3 59.5001 305.4 59.1001ZM303.9 63.7001C303.9 64.0001 304 64.3001 304.2 64.6001C304.4 64.9001 304.6 65.0001 305 65.2001C305.4 65.3001 305.8 65.4001 306.3 65.4001C306.8 65.4001 307.3 65.3001 307.7 65.1001C308.1 64.9001 308.4 64.6001 308.6 64.2001C308.8 63.8001 309 63.3001 309.1 62.6001L310.3 56.5001H309.3L309.1 57.5001C308.7 56.7001 308 56.3001 307.2 56.3001C306.7 56.3001 306.2 56.5001 305.8 56.8001C305.3 57.1001 305 57.6001 304.6 58.1001C304.3 58.7001 304.1 59.3001 304.1 60.1001C304.1 61.0001 304.3 61.6001 304.7 62.1001C305.1 62.6001 305.6 62.8001 306.3 62.8001C306.9 62.8001 307.5 62.5001 308 61.9001L307.9 62.4001C307.7 63.2001 307.6 63.7001 307.4 63.9001C307.1 64.2001 306.7 64.4001 306 64.4001C305.7 64.4001 305.5 64.4001 305.3 64.3001C305.2 64.2001 305.1 64.1001 305 64.0001C304.9 63.9001 304.9 63.7001 304.9 63.4001L303.8 63.3001C303.9 63.4001 303.9 63.6001 303.9 63.7001ZM302.4 62.8001L303.7 56.5001H302.7L301.4 62.8001H302.4ZM303.9 55.3001L304.1 54.1001H303.1L302.9 55.3001H303.9ZM295.6 55.0001H297.1C297.7 55.0001 298.1 55.0001 298.4 55.1001C298.8 55.2001 299.1 55.5001 299.3 55.9001C299.5 56.3001 299.7 56.8001 299.7 57.5001C299.7 58.1001 299.6 58.7001 299.4 59.2001C299.2 59.7001 299 60.1001 298.7 60.5001C298.5 60.8001 298.2 61.0001 298 61.2001C297.8 61.3001 297.5 61.4001 297.2 61.5001C296.7 61.6001 296.2 61.7001 295.6 61.7001H294.3L295.6 55.0001ZM295.9 62.8001C296.5 62.8001 296.9 62.8001 297.3 62.7001C297.8 62.6001 298.2 62.4001 298.6 62.1001C299 61.9001 299.3 61.5001 299.7 61.1001C300 60.7001 300.3 60.2001 300.5 59.6001C300.7 59.0001 300.8 58.4001 300.8 57.7001C300.8 57.1001 300.7 56.6001 300.6 56.1001C300.4 55.6001 300.2 55.2001 299.9 54.9001C299.6 54.6001 299.2 54.4001 298.7 54.2001C298.4 54.1001 297.9 54.1001 297.3 54.1001H294.7L292.9 62.8001H295.9Z" fill="#818486"/>
<path d="M315.2 62.0002C315 62.0002 314.9 62.0002 314.8 61.9002C314.7 61.8002 314.7 61.7002 314.7 61.6002C314.7 61.5002 314.7 61.2002 314.8 60.8002L315.5 57.3002H316.5L316.7 56.5002H315.7L316.2 54.2002L315 54.9002L314.7 56.5002H313.9L313.7 57.3002H314.5L313.8 61.0002C313.7 61.5002 313.6 61.8002 313.6 62.0002C313.6 62.3002 313.7 62.5002 313.9 62.6002C314.1 62.8002 314.5 62.9002 314.9 62.9002C315.1 62.9002 315.4 62.9002 315.6 62.8002L315.8 61.9002C315.6 61.9002 315.4 62.0002 315.2 62.0002Z" fill="#818486"/>
<path d="M324.3 62.8001L326.1 54.1001H325.1L323.3 62.8001H324.3ZM320.8 61.0001C320.6 61.3001 320.4 61.6001 320 61.8001C319.7 62.0001 319.3 62.1001 319 62.1001C318.6 62.1001 318.3 62.0001 318.1 61.8001C317.9 61.6001 317.8 61.4001 317.8 61.1001C317.8 60.9001 317.9 60.7001 318 60.5001C318.1 60.3001 318.3 60.2001 318.6 60.1001C318.9 60.0001 319.3 59.9001 319.9 59.9001C320.3 59.9001 320.6 59.8001 320.7 59.8001C320.9 59.8001 321 59.7001 321.2 59.7001C321.1 60.2001 321 60.7001 320.8 61.0001ZM321 62.8001H322.1C322 62.4001 322 62.1001 322 61.9001C322 61.6001 322.1 61.2001 322.2 60.7001L322.5 59.1001C322.6 58.7001 322.6 58.3001 322.6 57.9001C322.6 57.5001 322.4 57.1001 322.1 56.8001C321.7 56.4001 321.1 56.2001 320.3 56.2001C319.6 56.2001 319 56.4001 318.5 56.7001C318 57.0001 317.7 57.5001 317.5 58.1001L318.6 58.2001C318.7 57.8001 318.9 57.5001 319.2 57.3001C319.5 57.1001 319.8 57.0001 320.3 57.0001C320.8 57.0001 321.1 57.1001 321.4 57.3001C321.6 57.4001 321.7 57.6001 321.7 57.9001C321.7 58.1001 321.7 58.3001 321.6 58.6001C321.3 58.7001 320.8 58.8001 320.2 58.8001C319.5 58.8001 319.1 58.9001 318.9 58.9001C318.5 59.0001 318.2 59.1001 317.9 59.3001C317.6 59.5001 317.4 59.7001 317.3 60.0001C317.1 60.3001 317.1 60.6001 317.1 60.9001C317.1 61.4001 317.3 61.9001 317.6 62.2001C317.9 62.5001 318.4 62.7001 319 62.7001C319.4 62.7001 319.7 62.6001 320.1 62.5001C320.4 62.4001 320.8 62.1001 321.1 61.8001C320.9 62.3001 320.9 62.6001 321 62.8001Z" fill="#818486"/>
<path d="M330.7 62.2998C331.3 62.6998 332.1 62.8998 333.1 62.8998C333.7 62.8998 334.3 62.7998 334.8 62.5998C335.3 62.3998 335.7 62.0998 336 61.6998C336.3 61.2998 336.4 60.8998 336.4 60.3998C336.4 59.9998 336.3 59.6998 336.2 59.3998C336 59.0998 335.8 58.7998 335.5 58.5998C335.3 58.3998 334.8 58.1998 334.2 57.8998C333.4 57.5998 333 57.2998 332.8 57.1998C332.5 56.9998 332.3 56.8998 332.2 56.6998C332.1 56.4998 332 56.2998 332 56.0998C332 55.6998 332.1 55.3998 332.4 55.1998C332.7 54.8998 333.2 54.7998 333.8 54.7998C334.2 54.7998 334.5 54.8998 334.8 54.9998C335.1 55.0998 335.3 55.1998 335.5 55.3998C335.7 55.5998 335.8 55.7998 335.9 55.9998C335.9 56.0998 336 56.2998 336 56.5998L337.1 56.4998C337.1 56.3998 337.1 56.3998 337.1 56.2998C337.1 55.8998 337 55.5998 336.8 55.1998C336.6 54.7998 336.2 54.4998 335.8 54.1998C335.3 53.9998 334.7 53.7998 334 53.7998C333.4 53.7998 332.9 53.8998 332.4 54.0998C331.9 54.2998 331.6 54.5998 331.3 54.8998C331 55.1998 330.9 55.6998 330.9 56.0998C330.9 56.4998 331 56.7998 331.2 57.0998C331.4 57.3998 331.7 57.6998 332 57.8998C332.2 58.0998 332.7 58.2998 333.4 58.5998C334.3 58.9998 334.8 59.2998 335 59.4998C335.2 59.6998 335.3 59.9998 335.3 60.2998C335.3 60.6998 335.1 60.9998 334.8 61.2998C334.4 61.5998 333.9 61.7998 333.2 61.7998C332.7 61.7998 332.3 61.6998 332 61.5998C331.7 61.3998 331.4 61.1998 331.3 60.9998C331.2 60.7998 331.1 60.3998 331.1 60.0998V59.7998L330 59.8998C329.8 61.0998 330.1 61.7998 330.7 62.2998Z" fill="#818486"/>
<path d="M350.6 62.8001H351.6L352.9 56.5001H351.8L351.2 59.2001C351.1 59.7001 351 60.1001 350.9 60.3001C350.8 60.6001 350.6 60.9001 350.4 61.2001C350.2 61.5001 350 61.6001 349.7 61.8001C349.4 61.9001 349.1 62.0001 348.8 62.0001C348.5 62.0001 348.3 61.9001 348.2 61.8001C348.1 61.7001 348 61.5001 348 61.2001C348 61.0001 348 60.8001 348.1 60.4001L348.9 56.4001H347.9L347.2 60.1001C347.1 60.7001 347 61.2001 347 61.5001C347 61.9001 347.1 62.2001 347.4 62.5001C347.7 62.8001 348.1 62.9001 348.6 62.9001C349.4 62.9001 350.1 62.5001 350.9 61.6001L350.6 62.8001ZM344.9 62.8001L346.7 54.1001H345.7L343.9 62.8001H344.9ZM338.7 59.2001C338.8 58.8001 339 58.4001 339.2 58.1001C339.4 57.8001 339.7 57.6001 339.9 57.4001C340.2 57.2001 340.5 57.2001 340.8 57.2001C341.2 57.2001 341.6 57.4001 341.9 57.7001C342.2 58.0001 342.3 58.5001 342.3 59.0001C342.3 59.4001 342.2 59.7001 342.1 60.1001C342 60.4001 341.9 60.6001 341.8 60.9001C341.7 61.1001 341.5 61.4001 341.3 61.6001C341.1 61.8001 340.9 61.9001 340.7 62.0001C340.5 62.1001 340.3 62.1001 340 62.1001C339.6 62.1001 339.2 61.9001 338.9 61.6001C338.6 61.3001 338.5 60.8001 338.5 60.2001C338.6 59.9001 338.6 59.6001 338.7 59.2001ZM337.8 61.7001C338 62.1001 338.3 62.4001 338.7 62.6001C339.1 62.8001 339.5 62.9001 340 62.9001C340.6 62.9001 341.1 62.7001 341.7 62.4001C342.2 62.1001 342.6 61.6001 342.9 61.0001C343.2 60.4001 343.3 59.7001 343.3 59.0001C343.3 58.2001 343.1 57.5001 342.6 57.1001C342.1 56.6001 341.5 56.4001 340.8 56.4001C339.9 56.4001 339.1 56.7001 338.5 57.4001C337.8 58.2001 337.4 59.2001 337.4 60.5001C337.5 60.9001 337.6 61.3001 337.8 61.7001Z" fill="#818486"/>
<path d="M355.1 62.0002C354.9 62.0002 354.8 62.0002 354.7 61.9002C354.6 61.8002 354.6 61.7002 354.6 61.6002C354.6 61.5002 354.6 61.2002 354.7 60.8002L355.4 57.3002H356.4L356.6 56.5002H355.6L356.1 54.2002L354.9 54.9002L354.6 56.5002H353.8L353.6 57.3002H354.4L353.7 61.0002C353.6 61.5002 353.5 61.8002 353.5 62.0002C353.5 62.3002 353.6 62.5002 353.8 62.6002C354 62.8002 354.4 62.9002 354.8 62.9002C355 62.9002 355.3 62.9002 355.5 62.8002L355.7 61.9002C355.6 61.9002 355.4 62.0002 355.1 62.0002Z" fill="#818486"/>
<path d="M367 62.8001L367.6 59.9001C367.8 58.9001 368.1 58.3001 368.5 57.9001C368.9 57.5001 369.4 57.3001 369.9 57.3001C370.2 57.3001 370.4 57.4001 370.5 57.5001C370.6 57.6001 370.7 57.8001 370.7 58.0001C370.7 58.2001 370.7 58.5001 370.6 58.9001L369.8 62.9001H370.8L371.6 59.1001C371.7 58.6001 371.8 58.2001 371.8 58.0001C371.8 57.5001 371.7 57.2001 371.4 56.9001C371.1 56.6001 370.7 56.5001 370.2 56.5001C369.8 56.5001 369.5 56.6001 369.1 56.8001C368.7 57.0001 368.4 57.3001 367.9 57.7001L368.1 56.6001H367.1L365.8 62.9001H367V62.8001ZM360.7 59.2001C360.8 58.8001 361 58.4001 361.2 58.1001C361.4 57.8001 361.7 57.6001 361.9 57.4001C362.2 57.2001 362.5 57.2001 362.8 57.2001C363.2 57.2001 363.6 57.4001 363.9 57.7001C364.2 58.0001 364.3 58.5001 364.3 59.0001C364.3 59.4001 364.2 59.7001 364.1 60.1001C364 60.4001 363.9 60.6001 363.8 60.9001C363.7 61.1001 363.5 61.4001 363.3 61.6001C363.1 61.8001 362.9 61.9001 362.7 62.0001C362.5 62.1001 362.3 62.1001 362 62.1001C361.6 62.1001 361.2 61.9001 360.9 61.6001C360.6 61.3001 360.5 60.8001 360.5 60.2001C360.5 59.9001 360.6 59.6001 360.7 59.2001ZM359.8 61.7001C360 62.1001 360.3 62.4001 360.7 62.6001C361.1 62.8001 361.5 62.9001 362 62.9001C362.6 62.9001 363.1 62.7001 363.7 62.4001C364.2 62.1001 364.6 61.6001 364.9 61.0001C365.2 60.4001 365.3 59.7001 365.3 59.0001C365.3 58.2001 365.1 57.5001 364.6 57.1001C364.1 56.6001 363.5 56.4001 362.8 56.4001C361.9 56.4001 361.1 56.7001 360.5 57.4001C359.8 58.2001 359.4 59.2001 359.4 60.5001C359.5 60.9001 359.6 61.3001 359.8 61.7001ZM357.6 62.8001L358.9 56.5001H357.9L356.6 62.8001H357.6ZM359.2 55.3001L359.4 54.1001H358.4L358.2 55.3001H359.2Z" fill="#818486"/>
<path d="M373.4 62.4002C373.9 62.8002 374.5 62.9002 375.2 62.9002C375.7 62.9002 376.2 62.8002 376.6 62.6002C377 62.4002 377.3 62.2002 377.5 61.9002C377.7 61.6002 377.8 61.3002 377.8 61.0002C377.8 60.5002 377.6 60.1002 377.3 59.8002C377.1 59.6002 376.6 59.3002 375.8 59.0002C375.3 58.8002 375 58.6002 374.9 58.5002C374.7 58.3002 374.6 58.2002 374.6 58.0002C374.6 57.8002 374.7 57.6002 374.9 57.4002C375.1 57.2002 375.4 57.1002 375.7 57.1002C376.2 57.1002 376.5 57.2002 376.8 57.4002C377 57.6002 377.2 57.9002 377.2 58.3002L378.2 58.2002C378.2 57.6002 378 57.1002 377.6 56.7002C377.2 56.3002 376.6 56.2002 375.8 56.2002C375.1 56.2002 374.6 56.4002 374.2 56.7002C373.8 57.1002 373.6 57.5002 373.6 58.0002C373.6 58.3002 373.7 58.5002 373.8 58.8002C373.9 59.0002 374.1 59.2002 374.4 59.4002C374.6 59.5002 374.9 59.7002 375.5 59.9002C376.1 60.1002 376.4 60.3002 376.5 60.5002C376.6 60.7002 376.7 60.8002 376.7 61.0002C376.7 61.3002 376.6 61.5002 376.4 61.7002C376.2 61.9002 375.8 62.0002 375.4 62.0002C375.1 62.0002 374.8 61.9002 374.5 61.8002C374.3 61.7002 374.1 61.5002 374 61.3002C373.9 61.1002 373.9 60.8002 373.9 60.5002L372.9 60.6002C372.7 61.4002 372.9 62.0002 373.4 62.4002Z" fill="#818486"/>
<path d="M367.2 41.8002C367.8 42.5002 368.6 43.1002 369.6 43.5002C370.6 43.9002 371.7 44.1002 372.9 44.1002C373.7 44.1002 374.4 44.0002 375.1 43.8002C375.8 43.6002 376.5 43.3002 377 42.9002C377.6 42.5002 378 42.0002 378.4 41.4002C378.8 40.8002 378.9 40.1002 378.9 39.3002C378.9 38.2002 378.5 37.3002 377.8 36.7002C377.1 36.1002 376.1 35.6002 374.8 35.3002C374.2 35.1002 373.8 35.0002 373.5 34.8002C373.2 34.6002 373.1 34.4002 373.1 34.1002C373.1 33.7002 373.3 33.4002 373.7 33.2002C374.1 33.0002 374.5 32.9002 375 32.9002C375.6 32.9002 376.1 33.0002 376.6 33.3002C377 33.5002 377.4 33.8002 377.6 34.2002L380.3 31.9002C379.8 31.2002 379 30.7002 378.1 30.3002C377.2 30.0002 376.2 29.8002 375.2 29.8002C374.4 29.8002 373.6 29.9002 372.9 30.1002C372.2 30.3002 371.5 30.6002 371 31.0002C370.5 31.4002 370 31.9002 369.7 32.5002C369.4 33.1002 369.2 33.7002 369.2 34.5002C369.2 35.0002 369.3 35.5002 369.4 35.9002C369.6 36.3002 369.8 36.6002 370.1 36.9002C370.4 37.2002 370.8 37.5002 371.3 37.7002C371.8 37.9002 372.3 38.1002 373 38.3002C373.6 38.5002 374.1 38.7002 374.4 38.9002C374.7 39.1002 374.9 39.4002 374.9 39.7002C374.9 40.1002 374.7 40.4002 374.4 40.6002C374.1 40.8002 373.6 40.9002 373 40.9002C372.4 40.9002 371.8 40.8002 371.3 40.5002C370.7 40.2002 370.3 39.9002 369.9 39.4002L367.2 41.8002ZM357.1 35.4002C357.2 35.1002 357.3 34.8002 357.5 34.5002C357.7 34.2002 357.9 33.9002 358.2 33.7002C358.5 33.4002 358.8 33.2002 359.2 33.1002C359.6 32.9002 360 32.8002 360.5 32.8002C361.3 32.8002 361.9 33.0002 362.3 33.4002C362.7 33.8002 362.9 34.3002 362.9 34.9002V35.2002C362.9 35.3002 362.9 35.4002 362.9 35.5002H357.1V35.4002ZM366.4 38.1002C366.5 37.7002 366.6 37.2002 366.7 36.7002C366.8 36.2002 366.8 35.8002 366.8 35.5002C366.8 34.6002 366.7 33.8002 366.4 33.1002C366.1 32.4002 365.7 31.8002 365.2 31.3002C364.7 30.8002 364.1 30.5002 363.3 30.2002C362.6 29.9002 361.8 29.8002 360.9 29.8002C359.7 29.8002 358.6 30.0002 357.6 30.4002C356.6 30.8002 355.8 31.4002 355.1 32.1002C354.4 32.8002 353.8 33.7002 353.4 34.7002C353 35.7002 352.8 36.8002 352.8 37.9002C352.8 38.9002 353 39.7002 353.3 40.5002C353.6 41.3002 354.1 41.9002 354.7 42.4002C355.3 42.9002 356 43.3002 356.8 43.6002C357.6 43.9002 358.5 44.0002 359.4 44.0002C360.6 44.0002 361.8 43.8002 362.8 43.4002C363.9 43.0002 364.8 42.3002 365.7 41.4002L363 39.3002C362.6 39.7002 362.1 40.1002 361.6 40.3002C361.1 40.6002 360.5 40.7002 359.8 40.7002C359.4 40.7002 359.1 40.6002 358.7 40.5002C358.4 40.4002 358 40.2002 357.8 40.0002C357.5 39.8002 357.3 39.5002 357.1 39.2002C356.9 38.9002 356.8 38.6002 356.8 38.2002C356.8 38.1002 356.8 38.0002 356.8 38.0002H366.4V38.1002ZM351.5 24.2002C351.1 23.8002 350.5 23.6002 349.9 23.6002C349.2 23.6002 348.6 23.8002 348.1 24.3002C347.6 24.8002 347.4 25.4002 347.4 26.1002C347.4 26.7002 347.6 27.2002 348.1 27.6002C348.5 28.0002 349.1 28.2002 349.8 28.2002C350.2 28.2002 350.5 28.1002 350.8 28.0002C351.1 27.9002 351.4 27.7002 351.6 27.4002C351.8 27.2002 352 26.9002 352.1 26.6002C352.2 26.3002 352.3 26.0002 352.3 25.6002C352.2 25.1002 352 24.6002 351.5 24.2002ZM348.9 43.6002L351.3 30.2002H347L344.7 43.6002H348.9ZM331.8 36.0002C332 35.5002 332.2 35.0002 332.6 34.6002C332.9 34.2002 333.3 33.9002 333.8 33.7002C334.3 33.5002 334.8 33.4002 335.4 33.4002C336.3 33.4002 336.9 33.7002 337.5 34.2002C338 34.7002 338.3 35.4002 338.3 36.3002C338.3 36.9002 338.2 37.4002 338 37.9002C337.8 38.4002 337.5 38.9002 337.2 39.3002C336.9 39.7002 336.4 40.0002 336 40.3002C335.5 40.5002 335 40.7002 334.5 40.7002C334 40.7002 333.6 40.6002 333.3 40.5002C333 40.3002 332.7 40.1002 332.4 39.9002C332.2 39.6002 332 39.3002 331.9 39.0002C331.8 38.7002 331.7 38.3002 331.7 37.9002C331.5 37.0002 331.6 36.5002 331.8 36.0002ZM338.9 32.0002C338.5 31.3002 338 30.8002 337.2 30.4002C336.5 30.0002 335.6 29.8002 334.7 29.8002C333.6 29.8002 332.6 30.0002 331.7 30.4002C330.8 30.8002 330 31.4002 329.4 32.2002C328.7 33.0002 328.2 33.8002 327.9 34.8002C327.5 35.8002 327.3 36.9002 327.3 38.0002C327.3 38.8002 327.4 39.6002 327.7 40.3002C328 41.0002 328.3 41.6002 328.8 42.1002C329.3 42.6002 329.9 43.0002 330.6 43.3002C331.3 43.6002 332.1 43.7002 333 43.7002C333.9 43.7002 334.7 43.5002 335.5 43.2002C336.2 42.8002 336.8 42.4002 337.2 41.9002H337.3L337.1 42.8002C337 43.3002 336.8 43.8002 336.6 44.3002C336.4 44.7002 336.1 45.1002 335.8 45.5002C335.5 45.8002 335 46.1002 334.5 46.3002C334 46.5002 333.4 46.6002 332.7 46.6002C331.9 46.6002 331.2 46.4002 330.4 46.1002C329.6 45.8002 329 45.3002 328.5 44.8002L326.1 47.8002C326.5 48.2002 326.9 48.5002 327.5 48.8002C328 49.1002 328.6 49.3002 329.2 49.5002C329.8 49.7002 330.4 49.8002 331 49.9002C331.6 50.0002 332.2 50.0002 332.8 50.0002C334.1 50.0002 335.3 49.8002 336.2 49.5002C337.2 49.2002 338 48.7002 338.7 48.0002C339.4 47.4002 339.9 46.5002 340.4 45.6002C340.8 44.6002 341.2 43.5002 341.4 42.3002L343.5 30.1002H339.4L338.9 32.0002ZM320.8 37.8002C320.6 38.3002 320.4 38.8002 320 39.2002C319.7 39.6002 319.3 39.9002 318.8 40.1002C318.3 40.3002 317.8 40.4002 317.2 40.4002C316.3 40.4002 315.6 40.1002 315.1 39.6002C314.6 39.1002 314.4 38.4002 314.4 37.6002C314.4 37.0002 314.5 36.5002 314.7 36.0002C314.9 35.5002 315.1 35.0002 315.5 34.6002C315.8 34.2002 316.2 33.9002 316.7 33.7002C317.2 33.5002 317.7 33.3002 318.3 33.3002C319.2 33.3002 319.9 33.6002 320.4 34.1002C320.9 34.6002 321.1 35.3002 321.1 36.1002C321.1 36.7002 321 37.3002 320.8 37.8002ZM320.5 43.3002C321.5 42.9002 322.4 42.3002 323.1 41.5002C323.8 40.7002 324.4 39.9002 324.7 38.9002C325.1 37.9002 325.3 36.8002 325.3 35.7002C325.3 34.8002 325.1 34.0002 324.8 33.2002C324.5 32.5002 324 31.9002 323.4 31.3002C322.8 30.8002 322.1 30.4002 321.2 30.1002C320.4 29.8002 319.4 29.7002 318.5 29.7002C317.2 29.7002 316.1 29.9002 315.1 30.4002C314.1 30.8002 313.2 31.5002 312.5 32.2002C311.8 33.0002 311.2 33.8002 310.9 34.8002C310.5 35.8002 310.3 36.9002 310.3 38.0002C310.3 38.9002 310.5 39.7002 310.8 40.5002C311.1 41.2002 311.6 41.8002 312.2 42.4002C312.8 42.9002 313.5 43.3002 314.4 43.6002C315.2 43.9002 316.1 44.0002 317.1 44.0002C318.4 44.0002 319.5 43.8002 320.5 43.3002ZM306.4 43.6002L310 23.2002H305.6L302 43.6002H306.4ZM296 37.8002C295.8 38.3002 295.6 38.8002 295.2 39.2002C294.9 39.6002 294.5 39.9002 294 40.1002C293.5 40.3002 293 40.4002 292.4 40.4002C291.5 40.4002 290.8 40.1002 290.3 39.6002C289.8 39.1002 289.6 38.4002 289.6 37.6002C289.6 37.0002 289.7 36.5002 289.9 36.0002C290.1 35.5002 290.3 35.0002 290.7 34.6002C291 34.2002 291.4 33.9002 291.9 33.7002C292.4 33.5002 292.9 33.3002 293.5 33.3002C294.4 33.3002 295.1 33.6002 295.6 34.1002C296.1 34.6002 296.3 35.3002 296.3 36.1002C296.3 36.7002 296.2 37.3002 296 37.8002ZM295.7 43.3002C296.7 42.9002 297.6 42.3002 298.3 41.5002C299 40.7002 299.6 39.9002 299.9 38.9002C300.3 37.9002 300.5 36.8002 300.5 35.7002C300.5 34.8002 300.3 34.0002 300 33.2002C299.6 32.5002 299.2 31.9002 298.6 31.3002C298 30.8002 297.3 30.4002 296.4 30.1002C295.6 29.8002 294.6 29.7002 293.7 29.7002C292.4 29.7002 291.3 29.9002 290.3 30.4002C289.3 30.8002 288.4 31.5002 287.7 32.2002C287 33.0002 286.4 33.8002 286.1 34.8002C285.7 35.8002 285.5 36.9002 285.5 38.0002C285.5 38.9002 285.7 39.7002 286 40.5002C286.4 41.2002 286.8 41.8002 287.4 42.4002C288 42.9002 288.7 43.3002 289.6 43.6002C290.4 43.9002 291.3 44.0002 292.3 44.0002C293.6 44.0002 294.7 43.8002 295.7 43.3002ZM274.8 32.1002C274.8 31.8002 274.9 31.5002 274.9 31.1002C274.9 30.7002 275 30.4002 275 30.2002H270.9C270.9 30.6002 270.8 31.1002 270.7 31.7002C270.6 32.3002 270.5 32.7002 270.5 33.0002L268.6 43.6002H272.9L274.2 36.3002C274.3 35.9002 274.4 35.5002 274.5 35.2002C274.7 34.8002 274.8 34.5002 275.1 34.3002C275.3 34.0002 275.6 33.8002 275.9 33.7002C276.2 33.5002 276.6 33.5002 277 33.5002C277.7 33.5002 278.1 33.7002 278.4 34.0002C278.7 34.4002 278.8 34.8002 278.8 35.3002C278.8 35.6002 278.8 36.0002 278.7 36.4002L277.4 43.7002H281.7L283.2 35.5002C283.3 35.3002 283.3 35.0002 283.3 34.8002C283.3 34.6002 283.3 34.3002 283.3 34.1002C283.3 33.6002 283.2 33.0002 283.1 32.6002C282.9 32.1002 282.7 31.7002 282.3 31.3002C281.9 30.9002 281.5 30.6002 281 30.4002C280.5 30.2002 279.8 30.1002 279.1 30.1002C278.2 30.1002 277.3 30.3002 276.6 30.7002C275.8 30.9002 275.3 31.5002 274.8 32.1002ZM265.2 43.6002L266.7 35.4002C266.8 35.2002 266.8 34.9002 266.8 34.7002C266.8 34.5002 266.8 34.2002 266.8 34.0002C266.8 33.5002 266.7 32.9002 266.6 32.5002C266.4 32.0002 266.2 31.6002 265.8 31.2002C265.4 30.8002 265 30.5002 264.5 30.3002C264 30.1002 263.3 30.0002 262.6 30.0002C261.7 30.0002 260.9 30.2002 260.2 30.6002C259.5 31.0002 259 31.5002 258.6 32.1002H258.5L260 23.4002H255.7L252 43.6002H256.3L257.6 36.4002C257.7 35.6002 258.1 34.9002 258.5 34.3002C259 33.7002 259.6 33.4002 260.4 33.4002C261.1 33.4002 261.5 33.6002 261.8 33.9002C262.1 34.2002 262.2 34.7002 262.2 35.2002C262.2 35.5002 262.2 35.9002 262.1 36.3002L260.8 43.6002H265.2ZM252 31.9002C251.5 31.2002 250.8 30.7002 249.9 30.3002C249 30.0002 248.1 29.8002 247 29.8002C245.8 29.8002 244.6 30.0002 243.6 30.5002C242.6 31.0002 241.7 31.6002 241 32.3002C240.3 33.1002 239.7 33.9002 239.3 34.9002C238.9 35.9002 238.7 36.9002 238.7 38.0002C238.7 38.9002 238.9 39.7002 239.2 40.4002C239.5 41.1002 240 41.7002 240.5 42.3002C241.1 42.8002 241.8 43.2002 242.6 43.5002C243.4 43.8002 244.3 43.9002 245.3 43.9002C246.4 43.9002 247.5 43.7002 248.3 43.3002C249.2 42.9002 250 42.4002 250.7 41.8002L248.7 39.0002C248.4 39.3002 248 39.6002 247.5 39.9002C247 40.1002 246.5 40.2002 245.9 40.2002C245.4 40.2002 245 40.1002 244.6 40.0002C244.2 39.8002 243.9 39.6002 243.7 39.4002C243.5 39.1002 243.3 38.8002 243.2 38.5002C243.1 38.2002 243 37.8002 243 37.4002C243 36.8002 243.1 36.3002 243.3 35.8002C243.5 35.3002 243.8 34.8002 244.1 34.4002C244.5 34.0002 244.9 33.7002 245.4 33.5002C245.9 33.3002 246.4 33.2002 247 33.2002C247.5 33.2002 248 33.3002 248.4 33.5002C248.8 33.7002 249.1 34.0002 249.3 34.3002L252 31.9002ZM227.3 35.4002C227.4 35.1002 227.5 34.8002 227.7 34.5002C227.9 34.2002 228.1 33.9002 228.4 33.7002C228.7 33.4002 229 33.2002 229.4 33.1002C229.8 32.9002 230.2 32.8002 230.7 32.8002C231.5 32.8002 232.1 33.0002 232.5 33.4002C232.9 33.8002 233.1 34.3002 233.1 34.9002V35.2002C233.1 35.3002 233.1 35.4002 233.1 35.5002H227.3V35.4002ZM236.7 38.1002C236.8 37.7002 236.9 37.2002 237 36.7002C237.1 36.2002 237.1 35.8002 237.1 35.5002C237.1 34.6002 237 33.8002 236.7 33.1002C236.4 32.4002 236 31.8002 235.5 31.3002C235 30.8002 234.4 30.5002 233.6 30.2002C232.9 29.9002 232.1 29.8002 231.2 29.8002C230 29.8002 228.9 30.0002 227.9 30.4002C226.9 30.8002 226.1 31.4002 225.4 32.1002C224.7 32.8002 224.1 33.7002 223.7 34.7002C223.3 35.7002 223.1 36.8002 223.1 37.9002C223.1 38.9002 223.3 39.7002 223.6 40.5002C223.9 41.3002 224.4 41.9002 225 42.4002C225.6 42.9002 226.3 43.3002 227.1 43.6002C227.9 43.9002 228.8 44.0002 229.7 44.0002C230.9 44.0002 232.1 43.8002 233.1 43.4002C234.2 43.0002 235.1 42.3002 236 41.4002L233.3 39.3002C232.9 39.7002 232.4 40.1002 231.9 40.3002C231.4 40.6002 230.8 40.7002 230.1 40.7002C229.7 40.7002 229.4 40.6002 229 40.5002C228.6 40.4002 228.3 40.2002 228.1 40.0002C227.8 39.8002 227.6 39.5002 227.4 39.2002C227.2 38.9002 227.1 38.6002 227.1 38.2002C227.1 38.1002 227.1 38.0002 227.1 38.0002H236.7V38.1002ZM223.7 28.4002L224.4 24.5002H209.4L208.7 28.4002H214L211.3 43.6002H215.8L218.5 28.4002H223.7Z" fill="white"/>
</svg>
