<svg width="64" height="64" viewBox="0 0 64 64" fill="none" xmlns="http://www.w3.org/2000/svg">
<circle cx="32" cy="32" r="32" fill="#75187C" fill-opacity="0.2"/>
<circle cx="32" cy="32" r="24" fill="#75187C"/>
<path d="M34 25.5C36.4688 25.5 38.5 27.5312 38.5 30C38.5 32.5 36.4688 34.5 34 34.5C33.4062 34.5 32.8125 34.4062 32.3125 34.1875L31 35.5H30V37H28.5V38.5H25.5V35.5L29.6875 31.3125C29.5625 30.9062 29.5 30.4688 29.5 30.0312C29.5 30.0312 29.5 30.0312 29.5 30C29.5 27.5312 31.5 25.5 34 25.5ZM34 24C30.6562 24 28 26.6875 28 30C28 30.2812 28 30.5625 28.0312 30.8438L24.2188 34.6875C24.0625 34.8125 24 35 24 35.2188V39.25C24 39.6875 24.3125 40 24.75 40H29.25C29.6562 40 30 39.6875 30 39.25V38.5H30.75C31.1562 38.5 31.5 38.1875 31.5 37.75V37.125L32.75 35.875C33.1562 35.9688 33.5625 36 34 36C37.3125 36 40 33.3438 40 30C40 26.6875 37.3125 24 34 24ZM34 28.5C34 29.3438 34.6562 30 35.5 30C36.3125 30 37 29.3438 37 28.5C37 27.6875 36.3125 27 35.5 27C34.6562 27 34 27.6875 34 28.5Z" fill="white"/>
</svg>
