<svg width="64" height="64" viewBox="0 0 64 64" fill="none" xmlns="http://www.w3.org/2000/svg">
<circle cx="32" cy="32" r="32" fill="#CE0610" fill-opacity="0.2"/>
<path d="M56 32C56 45.2548 45.2548 56 32 56C18.7452 56 8 45.2548 8 32C8 18.7452 18.7452 8 32 8C45.2548 8 56 18.7452 56 32Z" fill="#CE0610"/>
<path d="M33.4688 32L36.8438 28.6562C37.0312 28.4688 37.0312 28.125 36.8438 27.9375L36.0625 27.1562C35.875 26.9688 35.5312 26.9688 35.3438 27.1562L32 30.5312L28.625 27.1562C28.4375 26.9688 28.0938 26.9688 27.9062 27.1562L27.125 27.9375C26.9375 28.125 26.9375 28.4688 27.125 28.6562L30.5 32L27.125 35.375C26.9375 35.5625 26.9375 35.9062 27.125 36.0938L27.9062 36.875C28.0938 37.0625 28.4375 37.0625 28.625 36.875L32 33.5L35.3438 36.875C35.5312 37.0625 35.875 37.0625 36.0625 36.875L36.8438 36.0938C37.0312 35.9062 37.0312 35.5625 36.8438 35.375L33.4688 32Z" fill="white"/>
</svg>
